<svg width="98" height="98" viewBox="0 0 98 98" fill="none" xmlns="http://www.w3.org/2000/svg">
<path d="M18.0625 18.0625V4.3125C18.0625 2.41844 19.6059 0.875 21.5 0.875C23.3941 0.875 24.9375 2.41844 24.9375 4.3125V18.0625C24.9375 19.9566 23.3941 21.5 21.5 21.5C19.6059 21.5 18.0625 19.9566 18.0625 18.0625ZM97.125 21.5V76.5C97.125 82.1959 92.5084 86.8125 86.8125 86.8125H11.1875C5.49156 86.8125 0.875 82.1959 0.875 76.5V21.5C0.875 15.8041 5.49156 11.1875 11.1875 11.1875H14.625V18.0625C14.625 21.8609 17.7016 24.9375 21.5 24.9375C25.2984 24.9375 28.375 21.8609 28.375 18.0625V11.1875H69.625V18.0625C69.625 21.8609 72.7016 24.9375 76.5 24.9375C80.2984 24.9375 83.375 21.8609 83.375 18.0625V11.1875H86.8125C92.5084 11.1875 97.125 15.8041 97.125 21.5ZM42.125 49C42.125 47.1025 40.585 45.5625 38.6875 45.5625H36.9688C36.02 45.5625 35.25 46.3325 35.25 47.2812C35.25 48.23 36.02 49 36.9688 49H38.6875V71.3438C38.6875 72.2925 39.4575 73.0625 40.4062 73.0625C41.355 73.0625 42.125 72.2925 42.125 71.3438V49ZM59.3125 49C59.3125 47.1025 57.7725 45.5625 55.875 45.5625H54.1562C53.2075 45.5625 52.4375 46.3325 52.4375 47.2812C52.4375 48.23 53.2075 49 54.1562 49H55.875V71.3438C55.875 72.2925 56.645 73.0625 57.5938 73.0625C58.5425 73.0625 59.3125 72.2925 59.3125 71.3438V49ZM93.6875 33.5312C93.6875 32.5825 92.9175 31.8125 91.9688 31.8125H6.03125C5.0825 31.8125 4.3125 32.5825 4.3125 33.5312C4.3125 34.48 5.0825 35.25 6.03125 35.25H91.9688C92.9175 35.25 93.6875 34.48 93.6875 33.5312ZM76.5 21.5C78.3941 21.5 79.9375 19.9566 79.9375 18.0625V4.3125C79.9375 2.41844 78.3941 0.875 76.5 0.875C74.6059 0.875 73.0625 2.41844 73.0625 4.3125V18.0625C73.0625 19.9566 74.6059 21.5 76.5 21.5ZM11.1875 90.25C7.0625 90.25 3.39813 88.3869 0.875 85.4994V86.8125C0.875 92.5084 5.49156 97.125 11.1875 97.125H86.8125C92.5084 97.125 97.125 92.5084 97.125 86.8125V85.4994C94.6019 88.3869 90.9375 90.25 86.8125 90.25H11.1875Z" fill="#0B1719"/>
</svg>
