<svg width="84" height="84" viewBox="0 0 84 84" fill="none" xmlns="http://www.w3.org/2000/svg">
<path d="M14.5 14.6581V7.46688C14.4995 6.58467 14.6729 5.71102 15.0103 4.89587C15.3477 4.08073 15.8424 3.34007 16.4663 2.71626C17.0901 2.09244 17.8307 1.5977 18.6459 1.26032C19.461 0.922932 20.3347 0.749522 21.2169 0.750001H21.5331C22.4153 0.749522 23.289 0.922932 24.1041 1.26032C24.9193 1.5977 25.6599 2.09244 26.2837 2.71626C26.9076 3.34007 27.4023 4.08073 27.7397 4.89587C28.0771 5.71102 28.2505 6.58467 28.25 7.46688V14.6581C28.2498 16.4395 27.5421 18.1479 26.2825 19.4075C25.0229 20.6671 23.3145 21.3748 21.5331 21.375H21.2169C19.4355 21.3748 17.7271 20.6671 16.4675 19.4075C15.2079 18.1479 14.5002 16.4395 14.5 14.6581V14.6581ZM76.375 14.5V14.6581C76.3713 18.2618 74.9381 21.7167 72.3899 24.2649C69.8417 26.8131 66.3868 28.2463 62.7831 28.25H62.4676C58.8638 28.2464 55.4087 26.8133 52.8603 24.2651C50.312 21.717 48.8787 18.2619 48.875 14.6581V14.5H35.125V14.6581C35.1213 18.2618 33.688 21.7167 31.1399 24.2649C28.5917 26.8131 25.1368 28.2463 21.5331 28.25H21.2176C17.6138 28.2464 14.1587 26.8133 11.6104 24.2651C9.06204 21.717 7.62875 18.2619 7.625 14.6581V14.5C5.80164 14.5 4.05295 15.2243 2.76364 16.5136C1.47433 17.803 0.75 19.5516 0.75 21.375V76.375C0.75 78.1984 1.47433 79.947 2.76364 81.2364C4.05295 82.5257 5.80164 83.25 7.625 83.25H76.375C78.1984 83.25 79.947 82.5257 81.2364 81.2364C82.5257 79.947 83.25 78.1984 83.25 76.375V21.375C83.25 19.5516 82.5257 17.803 81.2364 16.5136C79.947 15.2243 78.1984 14.5 76.375 14.5V14.5ZM28.25 69.5H14.5V62.625H28.25V69.5ZM28.2569 55.7569H14.5V48.875H28.2569V55.7569ZM28.2569 42H14.5V35.125H28.2569V42ZM48.875 69.5H35.125V62.625H48.875V69.5ZM48.875 55.7569H35.125V48.875H48.875V55.7569ZM48.875 42H35.125V35.125H48.875V42ZM69.5 69.5H55.75V62.625H69.5V69.5ZM69.5069 55.7569H55.75V48.875H69.5069V55.7569ZM69.5069 42H55.75V35.125H69.5069V42ZM55.75 14.6581V7.46688C55.7495 6.58467 55.9229 5.71102 56.2603 4.89587C56.5977 4.08073 57.0924 3.34007 57.7163 2.71626C58.3401 2.09244 59.0807 1.5977 59.8959 1.26032C60.711 0.922932 61.5847 0.749522 62.4669 0.750001H62.7831C63.6653 0.749522 64.539 0.922932 65.3541 1.26032C66.1693 1.5977 66.9099 2.09244 67.5337 2.71626C68.1576 3.34007 68.6523 4.08073 68.9897 4.89587C69.3271 5.71102 69.5005 6.58467 69.5 7.46688V14.6581C69.4998 16.4395 68.7921 18.1479 67.5325 19.4075C66.2729 20.6671 64.5645 21.3748 62.7831 21.375H62.4669C60.6855 21.3748 58.9771 20.6671 57.7175 19.4075C56.4579 18.1479 55.7502 16.4395 55.75 14.6581V14.6581Z" fill="#2A3543"/>
</svg>
