<svg width="110" height="110" viewBox="0 0 110 110" fill="none" xmlns="http://www.w3.org/2000/svg">
<path fill-rule="evenodd" clip-rule="evenodd" d="M51.5625 89.375V96.2431L37.8125 96.25C35.915 96.25 34.375 97.7934 34.375 99.6875C34.375 101.585 35.9184 103.125 37.8125 103.125L72.1875 103.108C74.085 103.108 75.625 101.568 75.625 99.6703C75.625 97.7728 74.0816 96.2328 72.1875 96.2328L58.4375 96.2397V89.375H92.8125C95.5488 89.375 98.1716 88.2887 100.103 86.3534C102.039 84.4216 103.125 81.7988 103.125 79.0625V30.9375C103.125 28.2013 102.039 25.5784 100.103 23.6466C98.1716 21.7113 95.5488 20.625 92.8125 20.625H17.1875C14.4513 20.625 11.8284 21.7113 9.89656 23.6466C7.96125 25.5784 6.875 28.2013 6.875 30.9375C6.875 42.8416 6.875 67.1584 6.875 79.0625C6.875 81.7988 7.96125 84.4216 9.89656 86.3534C11.8284 88.2887 14.4513 89.375 17.1875 89.375H51.5625ZM13.75 75.625V79.0625C13.75 79.9734 14.1109 80.85 14.7572 81.4928C15.4 82.1391 16.2766 82.5 17.1875 82.5H54.6666C54.7766 82.4897 54.8866 82.4828 55 82.4828C55.1134 82.4828 55.2234 82.4897 55.3334 82.5H92.8125C93.7234 82.5 94.6 82.1391 95.2428 81.4928C95.8891 80.85 96.25 79.9734 96.25 79.0625V75.6284L13.75 75.625ZM96.25 68.7534L13.75 68.75V30.9375C13.75 30.0266 14.1109 29.15 14.7572 28.5072C15.4 27.8609 16.2766 27.5 17.1875 27.5H92.8125C93.7234 27.5 94.6 27.8609 95.2428 28.5072C95.8891 29.15 96.25 30.0266 96.25 30.9375V68.7534Z" fill="#2A3543"/>
<path fill-rule="evenodd" clip-rule="evenodd" d="M51.5625 37.8194V58.4375C51.5625 60.335 53.1025 61.875 55 61.875C56.8975 61.875 58.4375 60.335 58.4375 58.4375V37.8194C58.4375 35.9219 56.8975 34.3819 55 34.3819C53.1025 34.3819 51.5625 35.9219 51.5625 37.8194Z" fill="#2A3543"/>
<path fill-rule="evenodd" clip-rule="evenodd" d="M65.3056 41.2294V54.9794C65.3056 56.8769 66.8491 58.4169 68.7431 58.4169C70.6406 58.4169 72.1806 56.8769 72.1806 54.9794V41.2294C72.1806 39.3319 70.6406 37.7919 68.7431 37.7919C66.8491 37.7919 65.3056 39.3319 65.3056 41.2294Z" fill="#2A3543"/>
<path fill-rule="evenodd" clip-rule="evenodd" d="M37.8228 41.2294V54.9794C37.8228 56.8769 39.3628 58.4169 41.2603 58.4169C43.1544 58.4169 44.6978 56.8769 44.6978 54.9794V41.2294C44.6978 39.3319 43.1544 37.7919 41.2603 37.7919C39.3628 37.7919 37.8228 39.3319 37.8228 41.2294Z" fill="#2A3543"/>
<path fill-rule="evenodd" clip-rule="evenodd" d="M79.0522 44.6669V51.5419C79.0522 53.4394 80.5922 54.9794 82.4897 54.9794C84.3872 54.9794 85.9272 53.4394 85.9272 51.5419V44.6669C85.9272 42.7694 84.3872 41.2294 82.4897 41.2294C80.5922 41.2294 79.0522 42.7694 79.0522 44.6669Z" fill="#2A3543"/>
<path fill-rule="evenodd" clip-rule="evenodd" d="M24.0763 44.6669V51.5419C24.0763 53.4394 25.6163 54.9794 27.5138 54.9794C29.4113 54.9794 30.9513 53.4394 30.9513 51.5419V44.6669C30.9513 42.7694 29.4113 41.2294 27.5138 41.2294C25.6163 41.2294 24.0763 42.7694 24.0763 44.6669Z" fill="#2A3543"/>
</svg>
