<svg width="133" height="111" viewBox="0 0 133 111" fill="none" xmlns="http://www.w3.org/2000/svg">
<path d="M84.48 65.0595C84.48 59.6943 78.2677 55.1763 68.3845 52.3525C70.9259 42.4694 70.0788 34.8452 65.5608 32.0214C64.4312 31.4567 63.3017 31.1743 61.8899 31.1743C57.6542 31.1743 52.0067 34.2805 46.3592 39.6456C40.7117 34.2805 35.3465 31.1743 30.8285 31.1743C29.4166 31.1743 28.2871 31.4567 27.1576 32.0214C22.922 34.8452 22.0748 42.4694 24.3338 52.3525C14.7331 55.1763 8.2384 59.9767 8.2384 65.0595C8.2384 70.4246 14.4507 74.9426 24.3338 77.7664C22.0748 87.6495 22.922 95.5561 27.44 98.0975C28.5695 98.6622 29.699 98.9446 31.1109 98.9446C35.3465 98.9446 40.994 95.8384 46.6416 90.4733C52.2891 95.8384 57.6542 98.9446 62.1722 98.9446C63.5841 98.9446 64.7136 98.6622 65.8431 98.0975C70.3611 95.5561 71.2083 87.6495 68.9493 77.7664C78.2677 74.9426 84.48 70.1422 84.48 65.0595ZM61.8899 34.8452C62.737 34.8452 63.3017 34.8452 63.5841 35.41C65.8431 36.5395 66.6903 41.0575 65.8431 46.9874C65.5608 48.3993 65.2784 50.0935 64.996 51.5054C61.8899 50.6583 58.7837 50.3759 55.1128 49.8111C53.1362 46.9874 51.1596 44.446 48.9006 42.187C53.9833 37.3866 58.7837 34.8452 61.8899 34.8452ZM56.8071 70.9894C55.6776 72.966 54.5481 74.9426 53.1362 76.6369C50.8772 76.9192 48.6182 76.9193 46.3592 76.9193C44.1002 76.9193 41.8412 76.9192 39.5822 76.6369C38.4526 74.9426 37.3231 72.966 35.9113 70.9894C34.7818 69.0127 33.6523 67.0361 32.8051 65.0595C33.6523 63.0828 34.7818 61.1062 35.9113 59.1296C37.0408 57.1529 38.4526 55.1763 39.5822 53.1997C41.8412 52.9173 44.1002 52.9173 46.3592 52.9173C48.6182 52.9173 50.8772 52.9173 53.1362 53.1997C54.2657 54.8939 55.6776 56.8705 56.8071 59.1296C57.9366 61.1062 59.0661 63.0828 59.9132 65.0595C59.0661 67.0361 57.9366 69.0127 56.8071 70.9894ZM61.8899 69.2951C62.737 71.2717 63.3017 73.2484 63.8665 74.9426C61.8899 75.5074 59.9132 75.7897 57.9366 76.0721C58.5013 74.9426 59.3485 73.8131 59.9132 72.6836C60.7604 71.8365 61.3251 70.4246 61.8899 69.2951ZM46.3592 85.3905C44.9473 83.9787 43.5354 82.2844 42.4059 80.5901C43.8178 80.5901 45.2297 80.5901 46.3592 80.5901C47.7711 80.5901 49.1829 80.5901 50.3124 80.5901C49.1829 82.2844 47.7711 83.9787 46.3592 85.3905ZM34.7818 76.3545C32.8051 76.0721 30.8285 75.7897 28.8519 75.225C29.4166 73.2484 30.2637 71.2717 30.8285 69.5775C31.3932 70.707 31.958 71.8365 32.8051 72.966C33.6523 74.0955 34.217 75.225 34.7818 76.3545ZM30.8285 60.8238C29.9814 58.8472 29.4166 56.8705 28.5695 54.8939C30.5461 54.3292 32.5228 54.0468 34.7818 53.7644C33.9346 54.8939 33.3699 56.0234 32.5228 57.1529C32.2404 58.5648 31.6756 59.6943 30.8285 60.8238ZM46.3592 44.7284C47.7711 46.1403 48.9006 47.8345 50.3124 49.2464C48.9006 49.2464 47.7711 49.2464 46.3592 49.2464C44.9473 49.2464 43.8178 49.2464 42.4059 49.2464C43.8178 47.8345 45.2297 46.1403 46.3592 44.7284ZM59.9132 57.1529C59.0661 56.0234 58.5014 54.8939 57.6542 53.7644C59.9132 54.0468 61.8899 54.3292 63.8665 54.8939C63.3017 56.8705 62.4546 58.8472 61.6075 60.8238C61.3251 59.6943 60.7604 58.5648 59.9132 57.1529ZM27.1576 46.705C26.3105 40.7751 27.1576 36.5395 29.4166 35.1276C29.9814 34.8452 30.5461 34.5628 31.1109 34.5628C34.217 34.5628 38.735 37.1042 43.8178 41.9046C41.8412 44.1636 39.5822 46.705 37.6055 49.5288C34.217 49.8111 30.8285 50.3759 27.7224 51.223C27.44 49.8111 27.1576 48.1169 27.1576 46.705ZM20.9453 72.6836C15.5802 70.4246 11.9093 67.3185 11.9093 65.0595C11.9093 62.5181 15.2978 59.6943 20.663 57.4353C22.0748 56.8705 23.4867 56.3058 25.181 56.0234C26.0281 59.1296 27.1576 62.2357 28.8519 65.3418C27.44 68.448 26.3105 71.5541 25.4633 74.3779C23.7691 73.8131 22.3572 73.2484 20.9453 72.6836ZM29.1342 94.9913C26.8752 93.8618 26.0281 89.3438 26.8752 83.4139C27.1576 82.002 27.44 80.3078 27.7224 78.6135C30.8285 79.1783 33.9346 79.743 37.3231 80.0254C39.2998 82.8491 41.5588 85.3905 43.5354 87.6495C38.4526 92.4499 33.9346 94.9913 30.8285 94.9913C30.2637 95.2737 29.699 94.9913 29.1342 94.9913ZM65.8431 83.4139C66.6903 89.3438 65.8431 93.5794 63.5841 94.9913C63.0194 95.2737 62.4546 95.5561 61.8899 95.5561C58.7837 95.5561 54.2657 93.0147 49.1829 88.2143C51.442 85.9553 53.4186 83.4139 55.3952 80.5901C58.7837 80.3078 62.1722 79.743 64.996 79.1783C65.2784 80.3078 65.5608 81.7196 65.8431 83.4139ZM72.0554 72.6836C70.6435 73.2484 69.2316 73.8131 67.5374 74.0955C66.6903 71.2717 65.5608 68.1656 64.1489 65.0595C65.5608 61.9533 66.6903 58.8472 67.8198 55.741C69.2316 56.3058 70.9259 56.5882 72.3378 57.1529C77.7029 59.4119 81.0914 62.2357 81.0914 64.7771C80.8091 67.3185 77.4205 70.4246 72.0554 72.6836Z" fill="#37414D"/>
<path d="M46.6416 72.1189C50.5948 72.1189 53.701 69.0127 53.701 65.0594C53.701 61.1062 50.5948 58 46.6416 58C42.6883 58 39.5822 61.1062 39.5822 65.0594C39.5822 69.0127 42.6883 72.1189 46.6416 72.1189Z" fill="#37414D"/>
<path d="M100.011 41.5658C100.011 41.8031 99.9639 42.0381 99.8731 42.2574C99.7823 42.4766 99.6492 42.6759 99.4813 42.8437C99.3135 43.0115 99.1143 43.1446 98.895 43.2354C98.6758 43.3262 98.4408 43.373 98.2034 43.373H92.7818V48.7946C92.7818 49.2739 92.5914 49.7336 92.2525 50.0725C91.9136 50.4114 91.4539 50.6018 90.9746 50.6018C90.4953 50.6018 90.0356 50.4114 89.6967 50.0725C89.3578 49.7336 89.1674 49.2739 89.1674 48.7946V43.373H83.7458C83.2665 43.373 82.8068 43.1826 82.4679 42.8437C82.129 42.5047 81.9386 42.0451 81.9386 41.5658C81.9386 41.0865 82.129 40.6268 82.4679 40.2879C82.8068 39.949 83.2665 39.7586 83.7458 39.7586H89.1674V34.3369C89.1674 33.8576 89.3578 33.398 89.6967 33.0591C90.0356 32.7201 90.4953 32.5297 90.9746 32.5297C91.4539 32.5297 91.9136 32.7201 92.2525 33.0591C92.5914 33.398 92.7818 33.8576 92.7818 34.3369V39.7586H98.2034C98.4408 39.7586 98.6758 39.8053 98.895 39.8961C99.1143 39.9869 99.3135 40.1201 99.4813 40.2879C99.6492 40.4557 99.7823 40.6549 99.8731 40.8742C99.9639 41.0934 100.011 41.3284 100.011 41.5658V41.5658ZM98.2034 14.4577H83.7458C83.2665 14.4577 82.8068 14.6481 82.4679 14.987C82.129 15.3259 81.9386 15.7856 81.9386 16.2649C81.9386 16.7442 82.129 17.2038 82.4679 17.5428C82.8068 17.8817 83.2665 18.0721 83.7458 18.0721H98.2034C98.6827 18.0721 99.1424 17.8817 99.4813 17.5428C99.8202 17.2038 100.011 16.7442 100.011 16.2649C100.011 15.7856 99.8202 15.3259 99.4813 14.987C99.1424 14.6481 98.6827 14.4577 98.2034 14.4577ZM109.047 39.7736H123.504C123.984 39.7736 124.443 39.5832 124.782 39.2442C125.121 38.9053 125.312 38.4457 125.312 37.9664C125.312 37.4871 125.121 37.0274 124.782 36.6885C124.443 36.3496 123.984 36.1592 123.504 36.1592H109.047C108.567 36.1592 108.108 36.3496 107.769 36.6885C107.43 37.0274 107.239 37.4871 107.239 37.9664C107.239 38.4457 107.43 38.9053 107.769 39.2442C108.108 39.5832 108.567 39.7736 109.047 39.7736ZM123.504 43.358H109.047C108.567 43.358 108.108 43.5484 107.769 43.8873C107.43 44.2262 107.239 44.6859 107.239 45.1652C107.239 45.6445 107.43 46.1042 107.769 46.4431C108.108 46.782 108.567 46.9724 109.047 46.9724H123.504C123.984 46.9724 124.443 46.782 124.782 46.4431C125.121 46.1042 125.312 45.6445 125.312 45.1652C125.312 44.6859 125.121 44.2262 124.782 43.8873C124.443 43.5484 123.984 43.358 123.504 43.358ZM109.576 22.9644C109.744 23.1322 109.943 23.2653 110.162 23.3561C110.382 23.447 110.617 23.4937 110.854 23.4937C111.091 23.4937 111.326 23.447 111.545 23.3561C111.765 23.2653 111.964 23.1322 112.132 22.9644L116.276 18.8206L120.419 22.9644C120.587 23.1323 120.786 23.2656 121.006 23.3566C121.225 23.4475 121.46 23.4944 121.697 23.4945C121.935 23.4945 122.17 23.4478 122.389 23.357C122.609 23.2662 122.808 23.133 122.976 22.9652C123.144 22.7973 123.277 22.598 123.368 22.3786C123.458 22.1592 123.505 21.9241 123.505 21.6867C123.505 21.4493 123.458 21.2142 123.367 20.9949C123.276 20.7756 123.143 20.5764 122.975 20.4086L118.831 16.2649L122.975 12.1211C123.314 11.7821 123.504 11.3226 123.503 10.8435C123.503 10.3644 123.313 9.90496 122.974 9.56619C122.635 9.22742 122.176 9.03703 121.697 9.03688C121.218 9.03673 120.758 9.22683 120.419 9.56539L116.276 13.7091L112.132 9.56539C111.793 9.22683 111.333 9.03673 110.854 9.03688C110.375 9.03703 109.916 9.22742 109.577 9.56619C109.238 9.90496 109.048 10.3644 109.048 10.8435C109.047 11.3226 109.237 11.7821 109.576 12.1211L113.72 16.2649L109.576 20.4086C109.408 20.5764 109.275 20.7756 109.184 20.9949C109.093 21.2142 109.047 21.4492 109.047 21.6865C109.047 21.9238 109.093 22.1588 109.184 22.3781C109.275 22.5973 109.408 22.7966 109.576 22.9644V22.9644Z" fill="#37414D"/>
</svg>
