<svg width="123" height="161" viewBox="0 0 123 161" fill="none" xmlns="http://www.w3.org/2000/svg">
<path d="M90.847 124.174H110.715L89.2307 147.079V125.791C89.2307 124.899 89.9559 124.174 90.847 124.174ZM66.8706 35.2416L72.9957 34.4493L69.172 28.9618L66.8706 35.2416ZM122.678 3.94608V116.282H90.847C85.6034 116.282 81.3385 120.548 81.3385 125.791V161H4.26764C2.08783 161 0.321564 159.233 0.321564 157.054V3.94608C0.321564 1.76705 2.08783 0 4.26764 0H118.732C120.911 0 122.678 1.76705 122.678 3.94608ZM56.5642 51.8988C57.0125 52.063 57.4702 52.1411 57.9225 52.1411C59.5309 52.1411 61.0422 51.1499 61.627 49.5517L63.8092 43.5963L78.0814 41.7495L81.7079 46.9536C82.4758 48.0546 83.7014 48.6441 84.9484 48.6441C85.7273 48.6441 86.5142 48.4136 87.2008 47.9354C88.9892 46.6892 89.428 44.23 88.1826 42.4424L71.3115 18.2317C71.3052 18.223 71.2965 18.2159 71.2902 18.2072C71.1813 18.0525 71.0511 17.9136 70.9193 17.7755C70.8711 17.725 70.8301 17.6642 70.7796 17.6169C70.6754 17.519 70.5539 17.4385 70.4386 17.3517C70.3463 17.2822 70.2611 17.2025 70.164 17.1418C70.0898 17.0952 70.0046 17.0644 69.9264 17.0226C69.7741 16.9413 69.6234 16.8576 69.4624 16.7977C69.4513 16.7937 69.4426 16.7866 69.4316 16.7827C69.3393 16.7487 69.2446 16.7377 69.1522 16.7109C69.0078 16.6698 68.8649 16.624 68.7166 16.5996C68.5856 16.5775 68.4561 16.5759 68.3251 16.568C68.2012 16.5601 68.0781 16.5459 67.9534 16.5491C67.82 16.553 67.6906 16.5759 67.5588 16.5933C67.4365 16.609 67.3141 16.6193 67.1926 16.6469C67.0616 16.6769 66.9369 16.7251 66.809 16.7685C66.6946 16.8071 66.5786 16.8387 66.4665 16.8892C66.315 16.9571 66.1753 17.0447 66.0332 17.1307C65.9622 17.1741 65.8872 17.2025 65.8178 17.2507C65.8099 17.2562 65.8036 17.2641 65.7957 17.2696C65.6371 17.3817 65.4942 17.5143 65.3529 17.6492C65.3048 17.695 65.2488 17.7337 65.203 17.781C65.1075 17.882 65.0301 18.0004 64.9457 18.1117C64.8731 18.2072 64.7902 18.2964 64.7279 18.3974C64.6868 18.4629 64.66 18.5395 64.6221 18.6081C64.5345 18.7699 64.4469 18.9309 64.383 19.1022C64.379 19.1124 64.3727 19.1203 64.3696 19.1306L54.2171 46.836C53.4674 48.8824 54.5178 51.1491 56.5642 51.8988ZM66.9448 120.228C66.9448 118.049 65.1785 116.282 62.9987 116.282H23.0257C20.8459 116.282 19.0796 118.049 19.0796 120.228C19.0796 122.407 20.8459 124.174 23.0257 124.174H62.9995C65.1785 124.174 66.9448 122.407 66.9448 120.228ZM83.7219 96.1572C83.7219 93.9782 81.9557 92.2112 79.7758 92.2112H23.0257C20.8459 92.2112 19.0796 93.9782 19.0796 96.1572C19.0796 98.3363 20.8459 100.103 23.0257 100.103H79.7758C81.9557 100.103 83.7219 98.3363 83.7219 96.1572ZM96.0282 72.0862C96.0282 69.9071 94.2619 68.1401 92.0821 68.1401H23.0257C20.8459 68.1401 19.0796 69.9071 19.0796 72.0862C19.0796 74.2652 20.8459 76.0322 23.0257 76.0322H92.0821C94.2619 76.0322 96.0282 74.2652 96.0282 72.0862ZM111.06 25.2699C110.781 23.1098 108.81 21.5827 106.64 21.8629L101.367 22.5455L100.685 17.2728C100.405 15.1119 98.4345 13.5848 96.2641 13.8657C94.1033 14.1451 92.5769 16.1245 92.8571 18.2853L93.5398 23.5581L88.267 24.2408C86.1061 24.5201 84.5798 26.4987 84.86 28.6604C85.1173 30.65 86.8149 32.1006 88.769 32.1006C88.9371 32.1006 89.1083 32.0895 89.2804 32.0674L94.5531 31.3847L95.2358 36.6575C95.4931 38.6471 97.1907 40.0977 99.1448 40.0977C99.3129 40.0977 99.4841 40.0866 99.6554 40.0645C101.816 39.7852 103.343 37.8058 103.062 35.6449L102.38 30.3722L107.653 29.6895C109.814 29.4101 111.34 27.4316 111.06 25.2699Z" fill="#2A3543"/>
</svg>
