<svg width="141" height="141" viewBox="0 0 141 141" fill="none" xmlns="http://www.w3.org/2000/svg">
<path d="M25.2188 25.2188V5.09375C25.2188 2.32153 27.4778 0.0625 30.25 0.0625C33.0222 0.0625 35.2812 2.32153 35.2812 5.09375V25.2188C35.2812 27.991 33.0222 30.25 30.25 30.25C27.4778 30.25 25.2188 27.991 25.2188 25.2188ZM140.938 30.25V110.75C140.938 119.087 134.181 125.844 125.844 125.844H15.1562C6.81947 125.844 0.0625 119.087 0.0625 110.75V30.25C0.0625 21.9132 6.81947 15.1562 15.1562 15.1562H20.1875V25.2188C20.1875 30.7783 24.6905 35.2812 30.25 35.2812C35.8095 35.2812 40.3125 30.7783 40.3125 25.2188V15.1562H100.688V25.2188C100.688 30.7783 105.19 35.2812 110.75 35.2812C116.31 35.2812 120.812 30.7783 120.812 25.2188V15.1562H125.844C134.181 15.1562 140.938 21.9132 140.938 30.25ZM60.4375 70.5C60.4375 67.7227 58.1835 65.4688 55.4062 65.4688H52.8906C51.502 65.4688 50.375 66.5957 50.375 67.9844C50.375 69.373 51.502 70.5 52.8906 70.5H55.4062V103.203C55.4062 104.592 56.5332 105.719 57.9219 105.719C59.3105 105.719 60.4375 104.592 60.4375 103.203V70.5ZM85.5938 70.5C85.5938 67.7227 83.3398 65.4688 80.5625 65.4688H78.0469C76.6582 65.4688 75.5312 66.5957 75.5312 67.9844C75.5312 69.373 76.6582 70.5 78.0469 70.5H80.5625V103.203C80.5625 104.592 81.6895 105.719 83.0781 105.719C84.4668 105.719 85.5938 104.592 85.5938 103.203V70.5ZM135.906 47.8594C135.906 46.4707 134.779 45.3438 133.391 45.3438H7.60938C6.22075 45.3438 5.09375 46.4707 5.09375 47.8594C5.09375 49.248 6.22075 50.375 7.60938 50.375H133.391C134.779 50.375 135.906 49.248 135.906 47.8594ZM110.75 30.25C113.522 30.25 115.781 27.991 115.781 25.2188V5.09375C115.781 2.32153 113.522 0.0625 110.75 0.0625C107.978 0.0625 105.719 2.32153 105.719 5.09375V25.2188C105.719 27.991 107.978 30.25 110.75 30.25ZM15.1562 130.875C9.11875 130.875 3.75544 128.148 0.0625 123.922V125.844C0.0625 134.181 6.81947 140.938 15.1562 140.938H125.844C134.181 140.938 140.938 134.181 140.938 125.844V123.922C137.245 128.148 131.881 130.875 125.844 130.875H15.1562Z" fill="#2A3543"/>
</svg>
