<svg width="161" height="161" viewBox="0 0 161 161" fill="none" xmlns="http://www.w3.org/2000/svg">
<path d="M129.833 30.0873C136.663 30.0873 142.2 24.5506 142.2 17.7208C142.2 10.8909 136.663 5.35422 129.833 5.35422C123.003 5.35422 117.467 10.8909 117.467 17.7208C117.467 24.5506 123.003 30.0873 129.833 30.0873Z" fill="#2A3543"/>
<path d="M113.884 106.714V148.451C113.884 152.405 117.09 155.611 121.045 155.611C125 155.611 128.206 152.406 128.206 148.451V106.714H113.884Z" fill="#2A3543"/>
<path d="M141.862 150.909V106.714H131.298V148.451C131.298 152.405 134.503 155.611 138.458 155.611C139.999 155.611 141.423 155.12 142.591 154.292C142.124 153.259 141.862 152.115 141.862 150.909Z" fill="#2A3543"/>
<path d="M43.612 59.8602C50.5929 59.8602 56.2521 54.201 56.2521 47.22C56.2521 40.2391 50.5929 34.5799 43.612 34.5799C36.631 34.5799 30.9719 40.2391 30.9719 47.22C30.9719 54.201 36.631 59.8602 43.612 59.8602Z" fill="#2A3543"/>
<path d="M77.1655 80.3912L55.3672 77.7488L41.3177 68.4108L49.7077 71.1654C48.5225 67.0806 44.7956 64.2776 40.5658 64.2474L31.7438 64.1842C26.4107 64.1458 22.07 68.4709 22.0847 73.8009L22.1737 106.329C22.1806 108.88 23.2042 111.323 25.0173 113.118C26.2965 114.384 27.8949 115.252 29.6209 115.648H17.5663L9.39304 74.0688C8.88834 71.4994 6.39661 69.8274 3.8272 70.3315C1.25842 70.8365 -0.415104 73.3285 0.0899097 75.8973L9.01507 121.303C9.45216 123.526 11.4015 125.13 13.6671 125.13H26.5808V141.551L12.0392 149.514C10.5625 150.323 9.88296 152.143 10.5943 153.669C11.3735 155.341 13.3879 155.982 14.979 155.111L29.7417 147.027L44.5047 155.111C46.1006 155.984 48.1156 155.337 48.8923 153.663C49.6001 152.139 48.9203 150.322 47.4458 149.515L32.9026 141.55V125.129H46.7115C49.375 125.129 51.6482 122.949 51.5922 120.287C51.5595 118.743 50.7862 117.384 49.6158 116.542L54.0261 117.57V148.569C54.0261 152.295 56.9238 155.469 60.6482 155.602C64.5581 155.741 67.7718 152.613 67.7718 148.734V112.116C67.7715 108.921 65.5703 106.148 62.4591 105.423L49.6391 102.434L49.8001 92.2137L36.6808 79.0824L50.1592 88.0406C50.9035 88.5352 51.7532 88.8491 52.6403 88.9563C54.6506 89.2 73.7342 91.5131 75.7879 91.7622C78.907 92.1389 81.7811 89.9116 82.1625 86.7658C82.5424 83.6257 80.3053 80.772 77.1655 80.3912Z" fill="#2A3543"/>
<path d="M156.681 94.5687H72.0277C69.6422 94.5687 67.7083 96.5026 67.7083 98.888C67.7083 101.273 69.6422 103.207 72.0277 103.207H74.1282C74.1282 104.918 74.1282 149.15 74.1282 150.91C74.1282 153.525 76.2483 155.645 78.8639 155.645H78.8828C81.4981 155.645 83.6184 153.525 83.6184 150.91C83.6184 149.149 83.6184 104.916 83.6184 103.207H145.427L145.368 150.91C145.368 153.525 147.489 155.645 150.104 155.645H150.123C152.738 155.645 154.858 153.525 154.858 150.91C154.858 146.073 154.858 109.201 154.858 103.207H156.68C159.066 103.207 160.999 101.273 160.999 98.888C160.999 96.5026 159.066 94.5687 156.681 94.5687Z" fill="#2A3543"/>
<path d="M102.196 84.448H90.0377C88.2922 84.448 86.8771 85.8627 86.8771 87.6082C86.8771 89.3538 88.2922 90.7685 90.0377 90.7685H102.196C103.942 90.7685 105.357 89.3538 105.357 87.6082C105.357 85.8627 103.942 84.448 102.196 84.448Z" fill="#2A3543"/>
<path d="M159.92 48.0795C159.881 40.3319 153.547 34.029 145.799 34.029H139.683C138.901 36.0714 133.124 51.1639 132.286 53.3544L134.031 45.1387C134.153 44.5617 134.064 43.9598 133.78 43.4435L131.385 39.0876L133.514 35.2148C133.831 34.6378 133.413 33.9303 132.754 33.9303H126.91C126.252 33.9303 125.833 34.6375 126.15 35.2148L128.279 39.0876L125.875 43.4598C125.314 44.4808 125.478 44.9701 127.143 53.3547C125.666 49.5659 121.429 38.1499 119.823 34.0293H113.764C106.196 34.0293 99.9754 40.0442 99.6559 47.5455L96.7894 65.0062C96.4064 67.3382 97.4362 69.6765 99.4141 70.9689L113.882 80.4183V91.0619C117.744 91.0619 141.823 91.0619 145.611 91.0619C145.611 91.0619 145.495 83.931 145.489 48.1722C145.489 47.4886 146.038 46.932 146.721 46.9232C147.404 46.9144 147.969 47.4562 147.986 48.1398L148.202 91.0619L160.137 91.0886L159.92 48.0795ZM113.881 66.1631L109.196 63.1028C110.907 52.5274 111.449 48.793 111.577 48.1395C111.692 47.5515 112.235 47.1471 112.831 47.2053C113.427 47.2634 113.881 47.765 113.881 48.364V66.1631H113.881Z" fill="#2A3543"/>
</svg>
