<svg width="161" height="161" viewBox="0 0 161 161" fill="none" xmlns="http://www.w3.org/2000/svg">
<g clip-path="url(#clip0_1_60)">
<path d="M80.5 85.8667C77.5361 85.8667 75.1333 88.2694 75.1333 91.2333C75.1333 94.1972 77.5361 96.6 80.5 96.6C83.4639 96.6 85.8667 94.1972 85.8667 91.2333C85.8667 88.2694 83.4639 85.8667 80.5 85.8667Z" fill="#2A3543"/>
<path fill-rule="evenodd" clip-rule="evenodd" d="M128.8 66.4499L85.8667 44.9832V32.2H118.067V0H75.1333V44.9832L32.2 66.4499V85.8667H10.7333V150.267H0V161H64.4V118.067H96.6V161H161V150.267H150.267V85.8667H128.8V66.4499ZM139.533 150.267V96.6H128.8V150.267H139.533ZM32.2 150.267H21.4667V96.6H32.2V150.267ZM64.4 91.2333C64.4 82.3415 71.6082 75.1333 80.5 75.1333C89.3918 75.1333 96.6 82.3415 96.6 91.2333C96.6 100.125 89.3918 107.333 80.5 107.333C71.6082 107.333 64.4 100.125 64.4 91.2333Z" fill="#2A3543"/>
<path d="M85.8667 161V128.8H75.1333V161H85.8667Z" fill="#2A3543"/>
</g>
<defs>
<clipPath id="clip0_1_60">
<rect width="161" height="161" fill="white"/>
</clipPath>
</defs>
</svg>
